<svg xmlns="http://www.w3.org/2000/svg" viewBox="0 0 64 64" fill="none">
  <defs>
    <linearGradient id="bg" x1="10" y1="6" x2="55" y2="58" gradientUnits="userSpaceOnUse">
      <stop stop-color="#1c3557" />
      <stop offset="0.55" stop-color="#0f1d30" />
      <stop offset="1" stop-color="#07111d" />
    </linearGradient>
    <linearGradient id="accent" x1="20" y1="18" x2="48" y2="46" gradientUnits="userSpaceOnUse">
      <stop stop-color="#8cf0da" />
      <stop offset="1" stop-color="#0a84ff" />
    </linearGradient>
    <linearGradient id="spark" x1="37" y1="14" x2="50" y2="26" gradientUnits="userSpaceOnUse">
      <stop stop-color="#ffc477" />
      <stop offset="1" stop-color="#ff8a5b" />
    </linearGradient>
  </defs>
  <rect width="64" height="64" rx="18" fill="url(#bg)" />
  <rect x="5" y="5" width="54" height="54" rx="14" stroke="#ffffff" stroke-opacity="0.12" />
  <path
    d="M22 19.5C22 17.8431 23.3431 16.5 25 16.5H39C40.6569 16.5 42 17.8431 42 19.5C42 21.1569 40.6569 22.5 39 22.5H28V28H36C37.6569 28 39 29.3431 39 31C39 32.6569 37.6569 34 36 34H28V41.5H40C41.6569 41.5 43 42.8431 43 44.5C43 46.1569 41.6569 47.5 40 47.5H25C23.3431 47.5 22 46.1569 22 44.5V19.5Z"
    fill="url(#accent)"
  />
  <path
    d="M41.5 11L43.1946 15.3054L47.5 17L43.1946 18.6946L41.5 23L39.8054 18.6946L35.5 17L39.8054 15.3054L41.5 11Z"
    fill="url(#spark)"
  />
</svg>
