<svg xmlns="http://www.w3.org/2000/svg" viewBox="0 0 64 64" fill="none">
  <path
    d="M19 18.5C19 15.4624 21.4624 13 24.5 13H39.5C42.5376 13 45 15.4624 45 18.5C45 21.5376 42.5376 24 39.5 24H27V29H35C38.0376 29 40.5 31.4624 40.5 34.5C40.5 37.5376 38.0376 40 35 40H27V45H41C43.7614 45 46 47.2386 46 50C46 52.7614 43.7614 55 41 55H24.5C21.4624 55 19 52.5376 19 49.5V18.5Z"
    fill="#000000"
  />
  <path
    d="M42 8L43.9597 12.5403L48.5 14.5L43.9597 16.4597L42 21L40.0403 16.4597L35.5 14.5L40.0403 12.5403L42 8Z"
    fill="#000000"
  />
</svg>
